<?xml version="1.0" encoding="UTF-8"?><svg id="Capa_1" xmlns="http://www.w3.org/2000/svg" viewBox="0 0 566.93 708.66"><defs><style>.cls-1{fill:#fff;}.cls-2{letter-spacing:-.09em;}.cls-3{letter-spacing:-.02em;}.cls-4{letter-spacing:-.06em;}.cls-5{fill:#1d1d1b;font-family:TimesNewRomanPS-BoldMT, 'Times New Roman';font-size:60px;}</style></defs><g><path class="cls-1" d="M279.73,306.13c2.41-.51,4.72-.83,6.91-1.5,5.93-1.83,11.29-4.86,16.52-8.14,8.75-5.49,16.34-12.17,21.62-21.21,4.53-7.77,7.49-16.16,9.77-24.81,3.62-13.73,4.05-27.53,.99-41.44-2.65-12.03-7.28-23.3-12.93-34.18-4.07-7.84-9-15.09-15.18-21.45-7.96-8.19-17.54-13.95-27.83-18.67-3.12-1.43-6.33-2.39-9.78-2.6-5.18-.32-10.24-.07-14.96,2.39-4.17,2.18-8.45,4.18-12.53,6.52-8.86,5.08-16.64,11.47-22.66,19.81-10.86,15.04-17.99,31.77-22.09,49.81-1.53,6.74-2.34,13.56-1.8,20.5,.71,9.03,2.63,17.82,5.34,26.44,2.02,6.44,4.34,12.79,8.06,18.48,5.73,8.77,13.45,15.48,22.2,21.1,6.59,4.23,13.81,6.94,21.28,9.08,.86,.24,1.24,.59,1.24,1.57,0,4.21,.12,8.43,.14,12.64,.07,13.74,.16,27.48,.17,41.22,.01,10.61-.06,21.22-.14,31.82,0,1.17-.23,2.34-.41,3.5-.13,.83-.63,1.14-1.51,1.22-2.07,.18-4.17,.34-6.18,.83-4.7,1.14-8.97,3.17-12.26,6.85-3.16,3.55-3.18,7.56-.07,11.15,2.67,3.08,6.18,4.28,10.16,4.39,1.59,.05,1.99,.45,2.12,2.02,.08,.99,.16,1.99,.11,2.99-.55,12.72-1.07,25.45-1.72,38.17-.79,15.62-1.66,31.23-2.54,46.84-.8,14.12-1.3,28.26-.67,42.4,.13,3.01,.25,6.21,1.34,8.94,3.24,8.17,9.73,12.45,18.31,13.6,2.19,.3,4.44,.25,6.65,.18,5.24-.16,10.44-.74,15.08-3.43,5.46-3.17,8.97-7.7,9.2-14.27,.2-5.57,.53-11.15,.47-16.72-.12-10.74-.36-21.48-.76-32.21-.46-12.32-1.1-24.63-1.74-36.94-.73-14.03-1.55-28.06-2.29-42.09-.11-2.13-.1-4.26-.04-6.39,.05-2,.33-2.21,2.25-2.79,2.08-.62,4.14-1.31,6.19-2.03,3.38-1.18,5.39-3.77,6.63-6.94,.33-.84,.16-2.08-.19-2.97-1.37-3.44-3.8-5.98-6.99-7.87-4.3-2.55-9.06-3.34-13.91-3.74-1.32-.11-1.6-.58-1.6-1.82,.03-29.61,.03-59.23,.03-88.84v-1.41Z"/><path d="M279.73,306.13v1.41c0,29.61,0,59.23-.03,88.84,0,1.24,.28,1.71,1.6,1.82,4.85,.4,9.61,1.19,13.91,3.74,3.19,1.89,5.63,4.43,6.99,7.87,.35,.89,.52,2.12,.19,2.97-1.24,3.17-3.25,5.76-6.63,6.94-2.05,.72-4.11,1.4-6.19,2.03-1.92,.58-2.2,.79-2.25,2.79-.05,2.13-.07,4.27,.04,6.39,.75,14.03,1.57,28.06,2.29,42.09,.64,12.31,1.28,24.62,1.74,36.94,.4,10.73,.64,21.47,.76,32.21,.06,5.57-.27,11.14-.47,16.72-.23,6.57-3.74,11.1-9.2,14.27-4.64,2.7-9.84,3.28-15.08,3.43-2.22,.07-4.46,.11-6.65-.18-8.58-1.16-15.06-5.43-18.31-13.6-1.08-2.73-1.2-5.93-1.34-8.94-.63-14.14-.12-28.27,.67-42.4,.88-15.61,1.75-31.23,2.54-46.84,.64-12.72,1.16-25.44,1.72-38.17,.04-.99-.03-1.99-.11-2.99-.13-1.57-.53-1.98-2.12-2.02-3.98-.12-7.49-1.31-10.16-4.39-3.11-3.59-3.09-7.6,.07-11.15,3.29-3.68,7.56-5.72,12.26-6.85,2.01-.49,4.11-.64,6.18-.83,.88-.08,1.38-.39,1.51-1.22,.18-1.16,.4-2.33,.41-3.5,.07-10.61,.15-21.22,.14-31.82-.01-13.74-.1-27.48-.17-41.22-.02-4.21-.14-8.43-.14-12.64,0-.97-.39-1.32-1.24-1.57-7.47-2.14-14.7-4.84-21.28-9.08-8.75-5.62-16.47-12.33-22.2-21.1-3.72-5.69-6.04-12.04-8.06-18.48-2.71-8.62-4.63-17.41-5.34-26.44-.54-6.94,.27-13.77,1.8-20.5,4.1-18.04,11.23-34.77,22.09-49.81,6.02-8.34,13.8-14.72,22.66-19.81,4.08-2.34,8.35-4.34,12.53-6.52,4.73-2.46,9.79-2.71,14.96-2.39,3.45,.21,6.66,1.18,9.78,2.6,10.29,4.72,19.87,10.47,27.83,18.67,6.18,6.36,11.11,13.61,15.18,21.45,5.65,10.88,10.28,22.15,12.93,34.18,3.06,13.9,2.64,27.71-.99,41.44-2.28,8.65-5.23,17.04-9.77,24.81-5.27,9.04-12.87,15.72-21.62,21.21-5.22,3.28-10.59,6.31-16.52,8.14-2.19,.68-4.49,.99-6.91,1.5Zm-6.36,90.98v-1.95c0-23.99-.03-47.98,.03-71.96,.01-4.98,.24-9.97,.6-14.94,.42-5.81,1.99-7.33,7.52-8.92,3.55-1.02,7.1-2.23,10.42-3.82,11.82-5.68,21.64-13.69,28.25-25.22,5.25-9.14,8.11-19.13,10.09-29.4,1.06-5.47,.73-11.01,.56-16.54-.15-5.12-.24-10.26-1.58-15.24-3.37-12.62-8.61-24.46-14.87-35.91-8.54-15.63-21.6-25.95-37.78-32.65-5.48-2.27-11.17-3.25-16.95-1.13-2.76,1.01-5.41,2.31-8.06,3.58-14.24,6.85-25.09,17.32-33.03,30.92-5.21,8.92-9.18,18.38-12.33,28.18-1.35,4.2-2.77,8.51-3.16,12.87-.59,6.48-.38,13.04-.36,19.57,0,2.75,.21,5.54,.66,8.26,1.1,6.64,3.35,12.96,5.72,19.23,1.77,4.68,4.02,9.12,7.07,13.11,7.39,9.71,16.77,16.84,28.01,21.52,2.38,.99,4.76,2.1,7.26,2.62,2.23,.47,4.11,1.31,5.77,2.77,.88,.78,1.67,1.66,2.56,2.44,.85,.74,1.12,1.6,1.12,2.73-.03,29.2-.03,58.41-.03,87.61v2.27h12.5Zm8.09,19.58c1.85-.37,3.78-.64,5.65-1.15,2.44-.66,4.88-1.36,7.21-2.32,1.87-.77,1.95-1.68,.64-3.21-.53-.62-1.09-1.22-1.71-1.75-3.03-2.56-6.78-3.12-10.52-3.54-9.16-1.02-18.36-1.34-27.56-.56-4.24,.36-8.53,.7-12.47,2.45-1.55,.69-2.96,1.89-4.18,3.11-1.11,1.13-.84,2.68,.52,3.49,1.3,.77,2.75,1.37,4.21,1.78,2.13,.59,4.36,.82,6.49,1.42,2.46,.69,2.72,1.11,2.66,3.65-.12,5.66-.2,11.33-.46,16.99-.61,13.58-1.29,27.16-1.99,40.74-.79,15.43-1.81,30.86-2.35,46.3-.36,10.23-.09,20.48-.04,30.71,.03,6.18,2.4,10.98,8.41,13.48,8.67,3.62,17.04,3.13,25.09-1.79,1.85-1.13,3.26-2.76,3.71-4.85,.71-3.3,1.52-6.67,1.56-10.01,.11-8.38-.03-16.77-.34-25.15-.45-11.82-1.14-23.63-1.75-35.44-.6-11.81-1.28-23.62-1.83-35.43-.41-9.01-.7-18.02-.96-27.03-.11-3.89-.02-7.79-.02-11.89Z"/><path class="cls-1" d="M273.37,397.11h-12.5v-2.27c0-29.2,0-58.41,.03-87.61,0-1.14-.27-1.99-1.12-2.73-.89-.77-1.68-1.66-2.56-2.44-1.66-1.46-3.54-2.31-5.77-2.77-2.49-.52-4.88-1.63-7.26-2.62-11.25-4.68-20.62-11.82-28.01-21.52-3.04-4-5.3-8.43-7.07-13.11-2.37-6.27-4.63-12.59-5.72-19.23-.45-2.72-.65-5.5-.66-8.26-.02-6.53-.23-13.09,.36-19.57,.4-4.35,1.81-8.66,3.16-12.87,3.16-9.8,7.12-19.26,12.33-28.18,7.94-13.6,18.8-24.07,33.03-30.92,2.65-1.28,5.31-2.58,8.06-3.58,5.78-2.11,11.48-1.14,16.95,1.13,16.18,6.71,29.24,17.03,37.78,32.65,6.26,11.45,11.49,23.29,14.87,35.91,1.33,4.98,1.42,10.12,1.58,15.24,.17,5.53,.5,11.06-.56,16.54-1.98,10.27-4.84,20.26-10.09,29.4-6.62,11.52-16.44,19.54-28.25,25.22-3.32,1.6-6.87,2.8-10.42,3.82-5.53,1.59-7.1,3.11-7.52,8.92-.36,4.97-.59,9.96-.6,14.94-.06,23.99-.03,47.98-.03,71.96v1.95Zm39.58-205.79l-.29-.23c-.03-.36-.02-.73-.09-1.08-.11-.53-.23-1.06-.41-1.57-2.89-7.98-7.01-15.28-12.16-22-3.38-4.41-7.26-8.33-12-11.3-1.02-.64-2.15-1.23-3.31-1.5-.64-.15-1.67,.22-2.1,.72-.36,.42-.27,1.43-.04,2.06,.26,.74,.82,1.41,1.37,2,1.98,2.18,3.92,4.39,6.02,6.45,4.34,4.28,8.32,8.82,11.13,14.29,1.76,3.42,3.5,6.84,5.35,10.21,.64,1.18,1.51,2.25,2.36,3.3,.73,.91,1.83,.98,2.72,.47,.63-.36,.98-1.2,1.46-1.83Zm7.2,25.64h-.15c0-.73,.08-1.46-.01-2.17-.37-2.68-.68-5.38-1.25-8.01-.23-1.03-.94-2.08-1.71-2.85-1.27-1.27-3.02-.58-3.31,1.19-.07,.44-.11,.91-.07,1.35,.33,3.87,.63,7.75,1.05,11.61,.15,1.38,.51,2.76,1.01,4.06,.42,1.1,1.44,1.65,2.64,1.5,1.25-.15,1.5-1.2,1.59-2.22,.13-1.49,.15-2.98,.22-4.47Z"/><path class="cls-1" d="M281.46,416.7c0,4.1-.09,8,.02,11.89,.26,9.01,.55,18.03,.96,27.03,.54,11.81,1.22,23.62,1.83,35.43,.6,11.81,1.3,23.62,1.75,35.44,.32,8.38,.46,16.77,.34,25.15-.05,3.35-.85,6.71-1.56,10.01-.45,2.09-1.87,3.72-3.71,4.85-8.05,4.92-16.42,5.41-25.09,1.79-6.02-2.51-8.38-7.3-8.41-13.48-.06-10.24-.32-20.49,.04-30.71,.54-15.44,1.57-30.87,2.35-46.3,.69-13.58,1.37-27.16,1.99-40.74,.26-5.66,.34-11.32,.46-16.99,.05-2.54-.2-2.96-2.66-3.65-2.13-.6-4.36-.83-6.49-1.42-1.46-.4-2.91-1.01-4.21-1.78-1.37-.81-1.64-2.36-.52-3.49,1.21-1.22,2.62-2.42,4.18-3.11,3.94-1.75,8.23-2.09,12.47-2.45,9.2-.78,18.39-.46,27.56,.56,3.73,.42,7.48,.98,10.52,3.54,.62,.52,1.18,1.13,1.71,1.75,1.31,1.53,1.24,2.44-.64,3.21-2.33,.96-4.77,1.66-7.21,2.32-1.87,.51-3.8,.78-5.65,1.15Z"/><path d="M312.95,191.32c-.48,.63-.83,1.47-1.46,1.83-.89,.51-1.99,.44-2.72-.47-.85-1.05-1.72-2.12-2.36-3.3-1.84-3.37-3.59-6.79-5.35-10.21-2.81-5.47-6.79-10.01-11.13-14.29-2.09-2.06-4.04-4.27-6.02-6.45-.54-.6-1.1-1.27-1.37-2-.22-.63-.31-1.65,.04-2.06,.43-.5,1.46-.87,2.1-.72,1.16,.27,2.28,.86,3.31,1.5,4.74,2.97,8.62,6.89,12,11.3,5.15,6.72,9.28,14.02,12.16,22,.18,.51,.31,1.04,.41,1.57,.07,.35,.06,.72,.09,1.08l.29,.23Z"/><path d="M320.15,216.96c-.07,1.49-.09,2.99-.22,4.47-.09,1.02-.34,2.07-1.59,2.22-1.19,.15-2.22-.41-2.64-1.5-.49-1.3-.85-2.68-1.01-4.06-.43-3.86-.72-7.74-1.05-11.61-.04-.45,0-.91,.07-1.35,.29-1.77,2.04-2.46,3.31-1.19,.77,.77,1.48,1.82,1.71,2.85,.58,2.64,.89,5.33,1.25,8.01,.1,.71,.01,1.44,.01,2.17h.15Z"/></g><text class="cls-5" transform="translate(64 638.23)"><tspan x="0" y="0">ANAR</tspan><tspan class="cls-4" x="173.32" y="0" xml:space="preserve"> A</tspan><tspan x="225.03" y="0" xml:space="preserve"> DA</tspan><tspan class="cls-2" x="326.69" y="0">L</tspan><tspan class="cls-3" x="361.2" y="0">T</tspan></text></svg>