<?xml version="1.0" encoding="UTF-8"?><svg id="Capa_1" xmlns="http://www.w3.org/2000/svg" viewBox="0 0 64.45 64.24"><defs><style>.cls-1{fill:#e4201d;}.cls-2{fill:#cd0678;}.cls-3{fill:#e41926;}.cls-4{fill:#bd2987;}.cls-5{fill:#ec6520;}.cls-6{fill:#db1052;}.cls-7{fill:#d60860;}.cls-8{fill:#e41033;}.cls-9{fill:#e6341e;}.cls-10{fill:#e01042;}.cls-11{fill:#ef7c21;}.cls-12{fill:#d1066d;}.cls-13{fill:#f6a126;}.cls-14{fill:#e94d1f;}.cls-15{fill:#fffefe;}.cls-16{fill:#fbbb25;}</style></defs><path class="cls-4" d="M45.56,.24c5.75,.19,10.85,1.83,14.62,6.48,2.29,2.82,3.49,6.12,3.78,9.67,.71,8.86,.49,17.74,.28,26.61-.01-1.14-.02-2.28-.04-3.42,.01-.6,.01-1.2,.02-1.8,.01-2.5,.01-5.01,.01-7.51,0-.26,.03-.52-.22-.7-.08-1.81-.6-3.39-1.92-4.74-1.25-1.28-2.46-2.66-2.66-4.6-.15,1.12,.04,2.28-.52,3.33v-1.5c-.07,.01-.14,.01-.21,.02v5.07c0,1.48,.01,2.96,.01,4.44-.01,2.66-.02,5.32-.03,7.97v.02c-.05-.02-.1-.03-.15-.03-.01-.92-.03-1.85-.04-2.77-.06-6.14,.17-12.28-.23-18.41-.16-2.49-.63-4.9-1.99-7.04-1.78-2.79-4.44-4.24-7.59-4.93,.03-.13,.45-.27,.16-.32-.47-.08-.5-.44-.74-.68-1.23-1.2-1.72-2.91-2.93-4.12-.63-.64,.07-.77,.39-1.04Z"/><path class="cls-16" d="M13.99,63.4c-5.6-1.15-9.61-4.34-11.98-9.52-1.43-3.13-1.87-6.47-1.79-9.89,.29-.05,.12-.63,.63-.49,0,.56,.27,.98,.61,1.45,.58,.81,1.35,1.44,1.88,2.31,1.07,1.75,2.28,3.42,3.44,5.13,.28,.41,.63,.62,1.13,.35l-.05,.08c0,.16,.07,.24,.22,.26l-.02-.02c.19,.52-.15,1.36,.85,1.38-.2,.32-.11,.56,.07,.9,.87,1.68,2.16,3.07,3.12,4.67,.65,1.1,1.81,1.95,1.89,3.39Z"/><path class="cls-11" d="M.07,33.38c-.02-3.87-.18-7.75,.1-11.62,.42-.04,.64,.21,.91,.5,1.39,1.48,2.34,3.3,3.69,4.81,.28,.32,.43,.81,1.01,.71,0,.74,0,1.48,0,2.22-.03,.02-.08,.05-.08,.06,.02,.06,.05,.11,.08,.16,0,3.19,.02,6.37,.03,9.56-.64-.06-.91-.56-1.21-1.03-1.07-1.68-2.17-3.33-3.41-4.89-.32-.41-.62-.59-1.11-.48Z"/><path class="cls-13" d="M.07,33.38c.49-.11,.79,.06,1.11,.48,1.24,1.56,2.35,3.21,3.41,4.89,.3,.47,.57,.96,1.21,1.03,0,.36,0,.73,0,1.09-.27,.17-.24,.33,.02,.48,.24,1.2,.12,2.42,.18,3.63,.15,2.7,.58,5.33,1.88,7.75-.5,.27-.85,.06-1.13-.35-1.16-1.7-2.36-3.37-3.44-5.13-.53-.87-1.3-1.49-1.88-2.31-.33-.47-.61-.89-.61-1.45-.51-.14-.33,.44-.63,.49-.31-3.52-.18-7.06-.13-10.6Z"/><path class="cls-1" d="M6.63,4.35C9.31,1.96,12.56,.95,16.02,.45c.65-.1,1.31-.11,1.97-.17-.47,.92-.57,1.78,.38,2.5,.19,.15,.29,.42,.43,.63,.77,1.21,1.37,2.66,3.28,2.17,.1-.02,.24,.13,.36,.2-.62,.05-1.25,.14-1.87,.15-2.57,.07-5.11,.28-7.55,1.2-1.17,.44-2.05,1.35-3.2,1.82-.61-.93-1.21-1.87-1.84-2.78-.44-.61-1.14-1.03-1.35-1.82Z"/><path class="cls-14" d="M.31,18.06c.18-3.25,.8-6.39,2.53-9.21,0-.04,.04-.08,.07-.11l.02-.05c.06-.09,.12-.18,.18-.26l-.02,.02c1.26,.56,2.18,1.46,2.82,2.68,.34,.65,.62,1.36,1.27,1.81-.56,1.71-.98,3.46-1.09,5.26-.13,2.16-.2,4.32-.29,6.49-.55-.41-.39-1.18-.82-1.63-1.21-1.25-2.14-2.71-3.06-4.17-.42-.67-.84-1.02-1.61-.83Z"/><path class="cls-1" d="M57.81,59.84c-2.57,2.32-5.71,3.36-9.05,3.91-.68,.11-1.38,.13-2.08,.19,.78-.37,1.67-.78,1.22-1.83-.53-1.25-1.49-2.28-2.44-3.2-.54-.53-1.56-.48-2.39-.48,.77-.06,1.53-.15,2.3-.18,3.74-.16,7.18-1.06,9.89-3.85,.18,1.21,.3,2.44,1.55,3.15,.19,.11,.29,.54,.27,.81-.05,.65,.25,1.1,.73,1.48Z"/><path class="cls-11" d="M30.67,64.19c-2.74,.08-5.48,.07-8.22-.03-.46-.38-1.05-.01-1.57-.28,.24-.22,.64,.03,.81-.38-.17-.27-.59-.18-.8-.56-.92-1.69-1.49-3.71-3.63-4.41-.09-.03-.13-.25-.19-.38l.02,.03c.17,.01,.35,.02,.52,.03,.5,.03,1.01,.05,1.51,.08,.07,.1,.15,.11,.22,0,.47-.02,.94-.07,1.39,.11,.14,.01,.28,.01,.43,.02,1.92-.24,3.82,.42,5.74,.07-.05,.41,.21,.66,.43,.97,1.09,1.58,2.37,3.05,3.34,4.73Z"/><path class="cls-13" d="M17.06,58.14c.06,.13,.1,.34,.19,.38,2.14,.7,2.71,2.72,3.63,4.41,.21,.38,.63,.29,.8,.56-.17,.42-.57,.16-.81,.38,.52,.27,1.11-.1,1.57,.28-2.84,.01-5.68-.05-8.45-.76-.08-1.44-1.24-2.29-1.91-3.4-.96-1.6-2.26-2.99-3.12-4.67-.17-.34-.27-.58-.07-.9h.2c.36,.4,.76,.73,1.19,1.07,2.02,1.55,4.36,2.19,6.78,2.65Z"/><path class="cls-9" d="M43.07,58.42c.84,.01,1.85-.05,2.39,.48,.95,.93,1.9,1.96,2.44,3.2,.45,1.06-.44,1.47-1.22,1.83-.58,.03-1.16,.05-1.74,.08-.68,.01-1.37-.17-2.03,.12-.89,.01-1.79,.03-2.68,.04,.4-.48,.35-.89,.01-1.44-.44-.71-.88-1.41-1.39-2.08-.47-.61-1.02-1.28-.84-2.18,1.68-.01,3.37-.03,5.06-.05Z"/><path class="cls-10" d="M63.79,48.49c-.19,2.12-.75,4.12-1.77,6-1.37-1.89-3.28-3.44-3.7-5.93-.01-.05-.19-.07-.3-.11,.15-1.78,.3-3.56,.45-5.33,.45-.61,.02-1.35,.31-2.06,.24,.21,.63,.38,.65,.58,.11,1.2,1.08,1.86,1.67,2.75,.64,.97,1.29,1.97,2.09,2.8,.41,.41,.6,.77,.6,1.3Z"/><path class="cls-14" d="M38.01,58.48c-.17,.9,.38,1.57,.84,2.18,.51,.67,.95,1.37,1.39,2.08,.34,.55,.39,.96-.01,1.44-2.15,0-4.3,.01-6.44,.01-.14-.72-.63-1.22-1.03-1.79-.9-1.24-1.9-2.42-2.37-3.92,2.53,0,5.07,0,7.62,0Z"/><path class="cls-6" d="M63.79,48.49c0-.53-.2-.89-.6-1.3-.8-.83-1.45-1.83-2.09-2.8-.59-.89-1.56-1.55-1.67-2.75-.02-.2-.4-.37-.65-.58-.29,.71,.14,1.45-.31,2.06,.02-1.2,.03-2.39,.05-3.59,.05,0,.09,0,.14,.03,.03,.09,.07,.19,.1,.28,.03-.02,.07-.06,.07-.06-.05-.08-.11-.16-.17-.24,.01-2.66,.02-5.32,.03-7.97h.19c0,.29,.01,.59,.01,.88,.1,1.57-.33,3.12,1.13,4.54,.83,.81,1.72,1.93,2.13,3.22,.14,.46,.6,.82,.93,1.21,.16,.19,.37,.4,.66,.31,.32-.1,.23-.41,.26-.65,.07-.5-.18-1.03,.19-1.49,.01,1.14,.02,2.28,.04,3.42-.05,1.82-.01,3.67-.44,5.48Z"/><path class="cls-9" d="M7.17,12.92c-.65-.45-.93-1.16-1.27-1.81-.64-1.23-1.56-2.12-2.82-2.68,.86-1.64,2.1-2.95,3.54-4.08,.21,.79,.91,1.21,1.35,1.82,.64,.91,1.23,1.85,1.84,2.78-.84,1.36-2.02,2.48-2.64,3.97Z"/><path class="cls-6" d="M19.55,.21c1.64-.28,3.3-.18,4.95-.19,3.16-.02,6.33,.01,9.49,.03,.89,1.29,1.8,2.58,2.67,3.88,.38,.57,1.19,.94,.88,1.84-1.77,0-3.55-.01-5.32-.01,.13-.06,.25-.14,.39-.18,.32-.09,.8,.16,.91-.37,.09-.44-.3-.66-.56-.88-.33-.27-.57-.57-.7-.96-.77-2.36-1.81-3.13-4.27-3.13-.29,0-.59,0-.88,.01-1.19,.04-2.39-.16-3.55,.22-.28-.35-.68-.2-1.03-.21-.99-.05-1.98-.04-2.98-.05Z"/><path class="cls-12" d="M37.33,.04h1.13c.35,.31,.78,.17,1.17,.18,1.29,.02,2.59,.01,3.89,.01-.4,.23-.8,.22-1.19,.23-.29,.01-.49,.06-.43,.45,.18,1.13,1.17,1.86,1.44,2.95,.14,.57,.54,.13,.82,.2s.29,.3,.3,.52c0,.51,.26,.87,.8,1.18h-2.6c-.43-.3-.85-.3-1.28-.01-.08,.02-.17,.03-.25,.05-.15,0-.3-.01-.45-.01,.01-.23-.09-.42-.25-.59-.72-.76-1.65-1.38-1.74-2.57-.01-.1-.08-.25-.15-.27-1.28-.34-1-1.45-1.21-2.32Z"/><path class="cls-5" d="M.31,18.06c.77-.19,1.2,.16,1.61,.82,.92,1.46,1.85,2.91,3.06,4.17,.44,.46,.27,1.23,.82,1.63,.09,1.04,.07,2.08,0,3.11-.57,.1-.72-.4-1.01-.71-1.36-1.51-2.3-3.32-3.69-4.81-.27-.29-.49-.54-.91-.5,.04-1.24,.08-2.48,.13-3.71Z"/><path class="cls-8" d="M58.03,48.45c.1,.04,.29,.06,.3,.11,.42,2.48,2.34,4.04,3.7,5.93-.56,1.27-1.28,2.45-2.26,3.44-.83-1.56-1.66-3.12-2.49-4.69-.19-.36-.52-.35-.85-.38,.69-1.41,1.23-2.88,1.6-4.41Z"/><path class="cls-2" d="M42.65,5.75h2.6c-.55-.31-.8-.67-.8-1.18,0-.22-.02-.45-.3-.52-.27-.07-.67,.37-.82-.2-.27-1.08-1.25-1.81-1.44-2.95-.06-.39,.14-.44,.43-.45,.4-.01,.79,0,1.19-.23-1.3,0-2.59,.01-3.89-.01-.39-.01-.82,.13-1.17-.18,2.37-.02,4.74-.11,7.1,.2-.32,.27-1.02,.4-.4,1.01,1.21,1.21,1.7,2.92,2.93,4.12,.24,.23,.27,.59,.74,.68,.29,.05-.13,.19-.16,.32-.51-.06-1.01-.15-1.52-.18-2.01-.14-4.02-.26-6.03-.39,.08-.02,.17-.03,.25-.05,.43,.01,.86,.01,1.29,.01Z"/><path class="cls-3" d="M19.55,.21c.99,.01,1.98,.01,2.97,.03,.35,.01,.74-.14,1.03,.21h-3.01c.61,.59,.88,1.19,1.24,1.74,.78,1.21,1.62,2.39,2.43,3.58-.59,0-1.19,.01-1.78,.01-.12-.07-.26-.23-.36-.2-1.9,.49-2.51-.96-3.28-2.17-.14-.22-.24-.49-.43-.63-.95-.72-.85-1.58-.38-2.5,.53-.02,1.05-.05,1.57-.07Z"/><path class="cls-5" d="M30.38,58.49c.47,1.5,1.48,2.67,2.37,3.92,.4,.56,.9,1.07,1.03,1.79h-3.12c-.97-1.68-2.25-3.15-3.35-4.74-.21-.31-.48-.56-.43-.97,1.18-.01,2.34-.01,3.5,0Z"/><path class="cls-3" d="M56.43,52.86c.33,.03,.66,.02,.85,.38,.83,1.57,1.66,3.13,2.49,4.69-.56,.73-1.2,1.38-1.96,1.91-.47-.39-.78-.83-.72-1.49,.02-.27-.08-.7-.27-.81-1.25-.71-1.37-1.94-1.55-3.15l.02-.02c.05-.02,.1-.04,.16-.06-.02-.03-.04-.05-.06-.08,.29-.37,.58-.74,.87-1.12,.06-.08,.11-.17,.17-.25h0Z"/><path class="cls-7" d="M37.33,.04c.21,.87-.08,1.98,1.19,2.31,.07,.02,.15,.18,.15,.27,.09,1.19,1.02,1.81,1.74,2.57,.16,.17,.25,.36,.25,.59-1.04-.01-2.08-.01-3.11-.02,.32-.9-.5-1.28-.88-1.84-.87-1.31-1.78-2.59-2.67-3.88h3.33Z"/><path class="cls-14" d="M42.91,64.13c.66-.29,1.35-.11,2.03-.12-.67,.19-1.35,.18-2.03,.12Z"/><path class="cls-9" d="M2.9,8.73s-.06,.07-.07,.11c-.02-.06,0-.1,.07-.11Z"/><path class="cls-9" d="M3.1,8.42c-.06,.09-.12,.18-.18,.26,.07-.09,.12-.18,.18-.26Z"/><path class="cls-15" d="M37.55,5.77c1.04,.01,2.08,.01,3.11,.02,.15,0,.3,.01,.45,.01,2.01,.13,4.02,.25,6.03,.39,.51,.04,1.02,.12,1.52,.18,3.15,.69,5.82,2.14,7.59,4.93,1.36,2.14,1.83,4.55,1.99,7.04,.4,6.13,.17,12.27,.23,18.41,.01,.92,.02,1.85,.04,2.77-.02,1.2-.03,2.39-.05,3.59-.15,1.78-.3,3.56-.45,5.33-.37,1.53-.91,3-1.6,4.41h.01c-.06,.09-.12,.17-.18,.26-.29,.37-.58,.74-.87,1.12-.07,.02-.11,.06-.1,.14l-.02,.02c-2.71,2.79-6.15,3.69-9.89,3.85-.77,.03-1.53,.12-2.3,.18-1.69,.02-3.38,.04-5.06,.06-2.54,0-5.08,.01-7.62,.01-1.16,0-2.32-.01-3.49-.01-1.92,.36-3.82-.31-5.74-.07-.14-.09-.28-.1-.43-.02-.45-.18-.92-.13-1.39-.11h-.22c-.5-.03-1.01-.05-1.51-.08-.17-.12-.34-.16-.52-.03l-.02-.03c-2.42-.47-4.75-1.1-6.77-2.64-.43-.33-.83-.67-1.19-1.07,.03-.15-.06-.22-.18-.27-.23-.42-.49-.81-.87-1.11l.02,.02c-.02-.13-.06-.25-.21-.26l.05-.08c-1.3-2.42-1.73-5.05-1.88-7.75-.07-1.21,.05-2.43-.18-3.63,0-.16,0-.32-.02-.48,0-.36,0-.73,0-1.09,0-3.19-.02-6.37-.03-9.56v-.22c0-.74,0-1.48,0-2.22,.09-1.04,.11-2.08,0-3.11,.09-2.16,.16-4.33,.29-6.49,.11-1.8,.53-3.55,1.09-5.26,.62-1.5,1.8-2.62,2.64-3.97,1.15-.46,2.03-1.38,3.2-1.82,2.44-.92,4.98-1.13,7.55-1.2,.62-.02,1.25-.1,1.87-.15,.59,0,1.19-.01,1.78-.01,1.34-.01,2.67-.01,4.01-.02h4c1.76,.01,3.53,.01,5.31,.02Zm12.9,5.56c-1.89-.56-3.19-.03-4.45,1.8-.8,1.49-.68,3.09,.35,4.33,1.01,1.23,2.52,1.67,4.08,1.2,.91-.18,1.59-.68,2.04-1.48,1.63-1.86,.51-5.35-2.02-5.85Zm-5.57,31.28c1.19-1.26,2.01-2.74,2.61-4.36,.54-1.19,.9-2.43,.98-3.74,.4-1.76,.32-3.53-.03-5.27-1.18-5.84-4.44-10.03-10-12.33-2.5-1.09-5.09-1.54-7.81-1.15-.85-.02-1.68,.09-2.46,.44-3.62,.8-6.54,2.7-8.81,5.62-1.78,2.04-2.83,4.42-3.32,7.07-.48,2.04-.46,4.1-.09,6.15,.76,4.26,2.91,7.7,6.36,10.3,2.34,1.76,4.96,2.91,7.93,3.11,2.86,.47,5.6,.06,8.24-1.11,2.56-.98,4.7-2.55,6.4-4.73Z"/><path class="cls-12" d="M58.9,32.44c0-.29-.01-.59-.01-.88-.1-1.48,.25-2.98-.2-4.44v-5.07c.07-.01,.14-.01,.21-.02v1.5c-.12,.94,.03,1.83,.67,2.55,.35,.39,.52,.89,.82,1.27,.83,1.06,1.21,2.51,2.37,3.22,.75,.46,1.03,.93,1.03,1.72,0,.25-.13,.56,.22,.86v-3.6c.25,.18,.22,.45,.22,.7,0,2.5-.01,5.01-.01,7.51-.38,.2-.03,.71-.39,.95-.54-.85-1.55-1.35-1.64-2.48-.01-.1-.21-.17-.32-.27-.56-.49-.96-1.05-1.24-1.76-.32-.77-.75-1.56-1.73-1.76Z"/><path class="cls-2" d="M64.01,29.56v3.6c-.35-.3-.22-.6-.22-.86,0-.79-.28-1.26-1.03-1.72-1.16-.71-1.54-2.16-2.37-3.22-.3-.38-.48-.88-.82-1.27-.64-.72-.79-1.61-.67-2.55,.56-1.04,.37-2.21,.52-3.33,.2,1.94,1.41,3.32,2.66,4.6,1.32,1.36,1.85,2.94,1.93,4.75Z"/><path class="cls-7" d="M58.9,32.44c.99,.19,1.41,.99,1.73,1.78,.28,.71,.69,1.27,1.24,1.76,.11,.09,.31,.17,.32,.27,.1,1.13,1.11,1.63,1.64,2.48,.36-.24,0-.75,.39-.95-.01,.6-.01,1.2-.02,1.8-.36,.46-.12,.99-.19,1.49-.03,.24,.06,.55-.26,.65-.29,.09-.49-.11-.66-.31-.33-.39-.79-.75-.93-1.21-.41-1.29-1.3-2.41-2.13-3.22-1.47-1.42-1.03-2.97-1.13-4.54Z"/><path class="cls-7" d="M58.69,27.13c.45,1.46,.1,2.96,.2,4.44h-.19c0-1.49,0-2.97,0-4.44Z"/><path class="cls-13" d="M8.05,53.06c.37,.3,.64,.7,.87,1.11,0,.09,0,.18-.02,.27h0c-1-.02-.66-.87-.85-1.38Z"/><path class="cls-13" d="M7.85,52.81c.16,.02,.2,.13,.21,.26-.14-.02-.22-.1-.21-.26Z"/><path class="cls-5" d="M5.78,30v.22s-.06-.1-.08-.16c0-.01,.05-.04,.08-.06Z"/><path class="cls-11" d="M5.81,40.88c0,.16,0,.32,.02,.48-.26-.16-.29-.31-.02-.48Z"/><path class="cls-13" d="M17.08,58.18c.18-.13,.35-.09,.52,.03-.17-.02-.35-.03-.52-.03Z"/><path class="cls-13" d="M20.73,58.39c.15-.08,.29-.07,.43,.02-.15,0-.29,0-.43-.02Z"/><path class="cls-13" d="M19.11,58.28h.22c-.07,.11-.14,.1-.22,0Z"/><path class="cls-16" d="M8.89,54.44c0-.09,0-.18,.02-.27,.13,.05,.21,.12,.18,.27h-.2Z"/><path class="cls-10" d="M58.67,39.54c.06,.08,.11,.16,.17,.24,0,0-.05,.04-.07,.06-.03-.09-.07-.19-.1-.28-.01-.01,0-.02,0-.02Z"/><path class="cls-8" d="M28.22,5.75c-1.34,.01-2.67,.01-4.01,.02-.81-1.19-1.66-2.37-2.43-3.58-.35-.55-.63-1.16-1.24-1.74h3.01c1.17-.37,2.37-.18,3.55-.22-.83,.24-.89,.7-.43,1.36,.62,.88,1.53,1.49,2.08,2.46,.73,1.27,.81,1.26-.53,1.7Z"/><path class="cls-10" d="M28.22,5.75c1.34-.45,1.26-.43,.54-1.7-.55-.97-1.46-1.58-2.08-2.46-.47-.66-.4-1.12,.43-1.36,.29,0,.59-.01,.88-.01,2.46,0,3.51,.77,4.27,3.13,.13,.39,.37,.69,.7,.96,.26,.21,.65,.44,.56,.88-.11,.53-.59,.28-.91,.37-.14,.04-.26,.12-.39,.18-1.33,.02-2.66,.02-4,0Z"/><path class="cls-7" d="M42.65,5.75c-.43,0-.85,0-1.28-.01,.42-.28,.85-.29,1.28,.01Z"/><path class="cls-8" d="M56.26,53.12c.06-.09,.12-.17,.18-.26-.07,.08-.12,.17-.18,.26Z"/><path class="cls-1" d="M55.28,54.37c-.01-.08,.03-.12,.1-.14,.02,.03,.04,.06,.05,.08-.04,.03-.1,.04-.15,.06Z"/><path class="cls-14" d="M30.22,48.45c-2.97-.2-5.59-1.35-7.93-3.11-3.44-2.6-5.59-6.03-6.36-10.3-.37-2.05-.39-4.11,.09-6.15,.75-.08,1.29,.29,1.65,.89,.65,1.07,1.56,1.95,2.12,3.09,.34,.7,.94,1.23,1.78,1.36v.6c-.02,.33-.06,.67,.41,.73,.79,1.97,1.99,3.66,3.6,5.05-.03,.51,.31,.51,.67,.49h0c.15,1.37,1.12,2.34,1.77,3.46,.75,1.28,2.21,2.17,2.2,3.89Z"/><path class="cls-8" d="M30.62,15.76c2.72-.39,5.31,.06,7.81,1.15,.07,.28-.24,.51-.03,.84,.74,1.11,1.43,2.25,2.04,3.44,.73,1.44,2.04,2.45,3.02,3.7,.32,.4,.79,.71,.92,1.23,.39,1.61,2.05,2.51,2.34,4.17,.04,.22,.29,.31,.51,.39,1.05,.36,1.39,1.09,1.23,2.17-.08,.54,0,1.11,.01,1.66-.08,1.31-.43,2.55-.98,3.74-.73,.06-1.68-.16-1.81-.71-.42-1.77-2.45-2.61-2.47-4.54,0-.04-.19-.08-.29-.12-.03-1.62-.17-3.22-.8-4.75-1.29-3.18-3.7-5.15-6.84-6.33,.29-.22,.4-.64,.01-.62-.9,.05-.61-.65-.85-1.03-.62-.99-1.28-1.95-1.96-2.89-.47-.65-.79-1.21,.35-1.51-.74,0-1.48,0-2.21,0Z"/><path class="cls-1" d="M19.35,21.82c2.27-2.92,5.19-4.82,8.81-5.62,.52,1.48,2.11,2.33,2.33,3.99,.06,.46,.49,.48,.87,.49,.06,0,.28-.05,.16,.15-.08,.13-.38-.02-.38,.28,.48,0,.97-.03,1.44,.01,.19,.02,.68-.31,.53,.32-4.28-.21-7.6,1.52-10.04,5-.29-.54-.65-1.07-.93-1.59-.67-1.29-2.03-1.87-2.79-3.03Z"/><path class="cls-9" d="M30.22,48.45c0-1.71-1.45-2.6-2.2-3.89-.66-1.12-1.62-2.09-1.77-3.47,2.62,1.55,5.42,2.12,8.42,1.47,1.49-.03,2.26,1.01,2.97,2.08,.23,.34,.43,.69,.74,.96,.51,.42,.61,.82-.01,1.22-.39,.25-.38,.43,.09,.53-2.63,1.16-5.38,1.56-8.24,1.1Z"/><path class="cls-1" d="M38.46,47.34c-.48-.1-.49-.28-.09-.53,.62-.4,.52-.79,.01-1.22-.32-.26-.51-.62-.74-.96-.72-1.07-1.48-2.11-2.97-2.08,.21-.04,.43-.09,.64-.13,.07-.03,.14-.07,.21-.1,2.78-1.02,4.87-2.84,6.29-5.43,.43-.04,.87-.22,.76,.59-.07,.52,.35,1.06,.74,1.44,1.04,1.02,1.36,2.32,1.57,3.68-1.7,2.19-3.84,3.76-6.42,4.74Z"/><path class="cls-9" d="M19.35,21.82c.76,1.16,2.13,1.74,2.8,3.03,.28,.53,.64,1.05,.93,1.59-.38,.92-1.04,1.69-1.28,2.69-.4,1.69-.24,3.4-.21,5.1-.84-.13-1.44-.66-1.78-1.36-.56-1.14-1.46-2.03-2.12-3.09-.37-.6-.9-.97-1.65-.89,.47-2.65,1.53-5.03,3.31-7.07Z"/><path class="cls-10" d="M48.47,34.51c-.01-.55-.09-1.12-.01-1.66,.16-1.08-.19-1.81-1.23-2.17-.22-.08-.47-.17-.51-.39-.3-1.67-1.96-2.56-2.34-4.17-.13-.52-.6-.83-.92-1.23-.98-1.26-2.29-2.26-3.02-3.7-.61-1.19-1.3-2.33-2.04-3.44-.22-.32,.1-.56,.03-.84,5.56,2.3,8.82,6.49,10,12.33,.36,1.74,.44,3.51,.04,5.27Z"/><path class="cls-12" d="M52.48,17.17c-.46,.8-1.13,1.3-2.04,1.48-.97-.64-1.69-1.49-2.24-2.53-.57-1.1-.88-2.42-2.2-2.99,1.26-1.83,2.56-2.35,4.45-1.8-.08,.07-.16,.18-.25,.2-.92,.18-1.1,.44-.48,1.34,.95,1.41,2.16,2.66,2.76,4.3Z"/><path class="cls-3" d="M33.11,21.44c.15-.63-.35-.3-.53-.32-.47-.04-.96-.01-1.44-.01,0-.3,.31-.15,.38-.28,.12-.2-.1-.15-.16-.15-.38-.01-.81-.03-.87-.49-.22-1.66-1.8-2.51-2.33-3.99,.78-.35,1.61-.46,2.46-.44h2.2c-1.14,.3-.82,.85-.35,1.51,.68,.94,1.34,1.91,1.96,2.89,.24,.38-.06,1.08,.85,1.03,.39-.02,.28,.4-.01,.62-.72-.12-1.44-.24-2.16-.37Z"/><path class="cls-3" d="M44.88,42.61c-.21-1.36-.53-2.66-1.57-3.68-.39-.38-.81-.92-.74-1.44,.11-.82-.32-.63-.76-.59,.54-1.29,.93-2.62,1.1-4,.1,.04,.29,.08,.29,.12,.03,1.93,2.05,2.77,2.47,4.54,.13,.55,1.08,.77,1.81,.71-.59,1.6-1.42,3.07-2.6,4.34Zm-2.07-6.33s.03-.06,.03-.09c0,0-.05-.02-.08-.03-.01,.03-.03,.06-.03,.09,0,.02,.05,.02,.08,.03Z"/><path class="cls-7" d="M46,13.12c1.31,.57,1.62,1.89,2.2,2.99,.54,1.04,1.26,1.89,2.24,2.53-1.56,.47-3.07,.03-4.08-1.2-1.03-1.23-1.16-2.83-.36-4.32Z"/><path class="cls-2" d="M52.48,17.17c-.6-1.63-1.81-2.89-2.77-4.3-.61-.9-.44-1.16,.48-1.34,.09-.02,.17-.13,.25-.2,2.54,.5,3.66,3.99,2.04,5.84Z"/><path class="cls-15" d="M42.91,32.89c-.17,1.39-.56,2.72-1.1,4-1.42,2.59-3.51,4.41-6.29,5.43-.07,.03-.14,.07-.21,.1-.21,.04-.43,.09-.64,.13-3.01,.65-5.8,.08-8.42-1.47h0c-.22-.15-.44-.32-.67-.48-1.61-1.39-2.81-3.07-3.6-5.05,0-.31-.05-.61-.41-.73v-.6c-.03-1.7-.19-3.41,.21-5.1,.24-1,.9-1.77,1.28-2.69,2.44-3.48,5.75-5.21,10.04-5,.72,.12,1.44,.24,2.16,.37,3.14,1.18,5.55,3.15,6.84,6.33,.64,1.54,.78,3.14,.81,4.76Z"/><path class="cls-9" d="M21.58,34.83c.36,.11,.4,.41,.41,.73-.47-.05-.43-.4-.41-.73Z"/><path class="cls-9" d="M25.59,40.61c.22,.16,.44,.33,.67,.49-.36,0-.7,0-.67-.49Z"/><path class="cls-9" d="M35.31,42.42c.07-.03,.14-.07,.21-.1-.06,.04-.13,.07-.21,.1Z"/><path class="cls-1" d="M42.81,36.28s-.08-.02-.08-.03c0-.03,.02-.06,.03-.09,.03,0,.08,.02,.08,.03,0,.03-.02,.06-.03,.09Z"/></svg>